<?xml version="1.0" standalone="no"?>
<!DOCTYPE svg PUBLIC "-//W3C//DTD SVG 20010904//EN"
 "http://www.w3.org/TR/2001/REC-SVG-20010904/DTD/svg10.dtd">
<svg version="1.0" xmlns="http://www.w3.org/2000/svg"
 width="700.000000pt" height="700.000000pt" viewBox="0 0 700.000000 700.000000"
 preserveAspectRatio="xMidYMid meet">
<metadata>
Created by potrace 1.14, written by Peter Selinger 2001-2017
</metadata>
<g transform="translate(0.000000,700.000000) scale(0.100000,-0.100000)"
fill="#000000" stroke="none">
<path d="M3478 6205 c-1 -1 -66 -6 -143 -9 -77 -3 -151 -8 -165 -10 -14 -3
-47 -7 -75 -10 -203 -22 -531 -104 -745 -188 -421 -164 -792 -407 -1110 -727
-209 -211 -341 -380 -492 -631 -219 -364 -378 -817 -424 -1210 -3 -30 -8 -68
-10 -85 -21 -182 -20 -584 1 -695 2 -12 7 -48 11 -79 3 -31 8 -65 10 -76 3
-11 7 -36 10 -55 3 -19 12 -64 20 -100 9 -36 18 -76 21 -90 60 -289 235 -695
433 -1001 l37 -58 534 533 c451 450 545 538 602 570 103 58 183 78 297 76 85
-1 195 -23 206 -41 3 -5 12 -9 20 -9 45 0 180 -124 764 -706 344 -343 636
-632 650 -642 192 -148 491 -151 683 -8 16 12 492 484 1059 1049 l1031 1028
-2 54 c-2 116 -12 223 -36 392 -41 298 -161 668 -310 958 -105 205 -277 471
-383 590 -15 17 -42 48 -61 70 -68 82 -239 250 -336 332 -126 107 -126 107
-188 151 -29 20 -54 39 -57 42 -7 7 -121 82 -145 95 -11 6 -38 23 -60 37 -71
44 -274 147 -382 194 -255 108 -602 203 -848 230 -33 3 -69 8 -80 10 -11 2
-85 6 -165 10 -80 3 -150 7 -157 9 -6 2 -13 2 -15 0z"/>
</g>
</svg>
