<svg version="1.1" id="ft-logo" xmlns="http://www.w3.org/2000/svg" xmlns:xlink="http://www.w3.org/1999/xlink" x="0px" y="0px"
	 viewBox="0 0 516.3 264.9" xml:space="preserve" aria-labelledby="logoTitle" role="img">
	 <title id="logoTitle">Flying Tirol - Go to homepage</title>
<path id="logo-sun" class="st0" d="M341.4,58.4l-37.3,37.3c-4.2,4.2-11,4.2-15.1,0L267.2,74c-4.2-4.2-10.9-4.2-15.1,0l-18.7,18.7
	c-6.5-9.5-10.4-21.1-10.4-33.5c0-11.8,3.4-22.7,9.4-32C242.9,10.9,261.3,0,282.2,0C314.6,0,341,26.1,341.4,58.4z"/>
<path id="logo-bird" class="st1" d="M213.3,37.1c-0.3,0-0.7-0.1-0.9-0.4c-5.9-5.9-11.9-8.7-17.9-8.3c-9.1,0.5-15.2,8.1-15.3,8.2
	l-2-1.6c0.3-0.3,6.9-8.6,17.1-9.2c6.4-0.4,12.8,2.3,18.9,8.1c2.2-2.3,8-7.6,16.2-8.1c6.8-0.4,13.5,2.6,19.9,9l-1.8,1.8
	c-5.9-5.9-11.9-8.7-17.9-8.3c-9.1,0.5-15.2,8.1-15.3,8.2C214.1,37,213.8,37.1,213.3,37.1C213.4,37.1,213.4,37.1,213.3,37.1z"/>
<path id="logo-type" class="st1" d="M241.4,151.4c0,1-3.2,6-4.4,9.5c-2.5,7.5-12.9,48.8-14.6,52.5c-2.1,4.9-10.1,12.5-11.6,12.5
	c-1.3,0-10.5-5.8-10.5-7c0-1,6.4-6.1,7.7-10c1.4-4,12.2-44.7,14.2-52.3c0.8-3.3,3.9-8.5,6.1-10.8h-18.5c-2.2,0-5.3,3.8-5.3,5.6
	c0,3,7,9.4,7,11.2c0,2-6.5,7.7-9.1,7.7c-2.6,0-10-11.8-10-15.1c0-4.8,14.4-20.3,21.3-20.3h51.7c3.2,0,9.8,2.9,9.8,6.1
	c0,4.9-3.4,16-7.5,16c-3.2,0-9.8-2.9-9.8-6.1c0-2.5,2.1-6.8,2.3-7.3c-0.4,0.1-4.9,2.2-8.3,2.2h-18.5
	C237,147.5,241.4,150.2,241.4,151.4z M427.3,196.5c0,1.6-1.7,4.5-1.7,4.5c-7,13-14.8,24.8-24.2,24.8c-5.9,0-18.9-5.5-18.9-11.3
	c0-0.6,0.1-1.5,0.3-2.7c-3.7,2.5-8.6,4.5-14.5,4.5c-1.6,0-3.4,0-5.2-0.1c-4.3,5.7-9.4,9.6-14.8,9.6c-7.6,0-19.4-6.1-23-13.5
	c-5.3,7.8-10.9,13.5-17.4,13.5c-5.9,0-16.3-4.9-16.3-10c0-10.1,6.9-28.7,6.9-34.7c0-1.4-5.2-2.5-5.2-2.5s-4.5,10.7-10.9,22.4
	c0,0-0.4,0.7-1,1.3c-6.8,12.5-14.4,23.6-23.5,23.6c-5.9,0-17.6-5.5-17.6-11.3c0-6.1,9.2-39,11.4-47.1c0.5-1.8,2.3-2.7,4.3-2.7
	c1.6,0,10.4,4.7,10.4,7.1c0,3-10.5,32.2-10.5,41.3c0,1.7,2.1,3.6,3.4,3.6c3.7,0,10.6-9.8,17.2-21.3c0.1-0.2,0.2-0.4,0.2-0.4
	c0,0,0,0,0-0.1c0-0.1,0.1-0.2,0.2-0.4c4.5-8.2,9.1-19.8,9.1-19.8s-5.5-3.4-5.5-7.8s5.5-14.6,8.7-14.6c3.8,0,10.4,4.2,10.4,7.2
	c0,2.7-2,6-2,9.4c0,3.2,16.5,4.5,16.5,10c0,4.3-7.5,28.1-7.5,35.5c0,1.4,1.2,2.3,2.3,2.3c3.7,0,10.4-9.2,16.5-20.3
	c3.7-15.7,14.2-31.8,25.4-31.8c10,0,24.2,9.5,24.2,17.5c0,6.9-2.6,16.5-6.8,25.1c1,0.4,2.1,0.5,3.4,0.5c7,0,12.2-7.3,14.3-10.8
	c4.7-18.5,12.5-45.6,15.3-54.3c0.6-2,1.7-2.7,2.7-2.7c2.5,0,11.2,4.8,11.2,7c0,1-0.3,2.2-0.5,3.3c-1.3,4.2-17,56.8-17,62.9
	c0,1.7,3.6,3.6,4.8,3.6c3.9,0,10.9-10,17.3-21.7c0,0,1.2-2.3,2.9-2.3C424.5,192.9,427.3,194.9,427.3,196.5z M363.3,179.6
	c0-2.9-3.5-5.2-6.1-5.2c-6.6,0-17.3,22.1-17.3,36.7c0,3.2,3.3,5.9,5.8,5.9c1.4,0,3.3-1.3,5.1-3.5c-1-0.8-1.7-1.7-1.7-2.9
	c0-2.6,5.3-7.9,8.3-8.5C360.7,194.7,363.3,185.8,363.3,179.6z M516.3,166.6l-10.6,10.6l-134-134c-1.2-1.2-3.3-1.2-4.5,0L309.4,101
	c-7.1,7.1-18.6,7.1-25.7,0l-21.8-21.8c-0.8-0.8-1.8-0.9-2.3-0.9c0,0,0,0,0,0c-0.5,0-1.4,0.1-2.3,0.9l-94,94c-0.5,0.6-0.9,1.1-1,1.5
	c-0.9,3.2-7.2,15.3-12.1,35.8c-1.6,6.1-3.1,12.6-4.8,18.9c7.8,0.6,13.5,3.6,13.5,5.3c0,2.2-3,5.8-4.9,5.8c-2.1,0-4.2-3.2-10.4-4.3
	c-2.9,10.8-5.5,19.5-6.6,22c-2.2,4.3-9.6,6.6-14.7,6.6c-6.9,0-16.6-8.2-16.6-12.6c0-9.2,12.7-17.8,25.2-21.3
	c2.5-8.5,4.7-16.5,4.7-16.5c-4.9,5.7-10.7,11.4-15.6,11.4c-5.8,0-14-5.2-16.3-10.1c-4.6,6-9.5,10.1-15.1,10.1
	c-5.8,0-18.9-5.5-18.9-11.3c0-5.7,9.9-41.7,15.8-61.5c-1.6-1.4-2.8-2.6-2.8-2.6c0-2.5,2.1-6.8,2.3-7.3c-0.4,0.1-4.9,2.2-8.3,2.2
	h-7.7c-1.5,4.3-6.7,18.6-9.5,28.6h6.9c0.5,0,1.2,0.4,1.2,1.2c0,1.3-2.1,6.4-3.8,6.4h-6.4c-4,14.6-8.1,29-9.1,30.8
	c-2.7,4.4-16.2,12.5-21.8,12.5c-7.4,0-26.7-18.1-26.7-22c0-2.1,7.5-8.3,10.4-8.3c1,0,1.7,0.5,2.1,1.3c3,5.7,12.4,19.2,15.3,19.2
	c1.4,0,5.1-2.1,6.6-5.7c1-2.5,4.5-15.1,7.9-27.8H30.9c-0.6,0-1.3-0.4-1.3-1.2c0-1.3,2.2-6.4,3.9-6.4h10.9c2.5-9,4.7-17.2,5.7-20.5
	c0.7-2,2.7-5.3,4.5-8.1h-1.4H34.7c-2.2,0-5.3,3.8-5.3,5.6c0,3,7,9.4,7,11.2c0,2-6.5,7.7-9.1,7.7c-2.6,0-10-11.8-10-15.1
	c0-4.8,14.4-20.3,21.3-20.3h51.7c3.2,0,9.8,2.9,9.8,6.1c0,0.9-0.1,2.1-0.3,3.3c1.7,1.2,2.9,2.4,2.9,3.2c0,1-0.3,2.2-0.5,3.3
	c-1.3,4.2-17,56.8-17,62.9c0,1.7,3.6,3.6,4.8,3.6c3.7,0,10.1-8.9,16.2-19.7c2.7-11.4,6.6-25,8.4-29.9c0.6-1.8,1.7-2.5,2.9-2.5
	c2.5,0,11.1,4.5,11.1,6.9c0,0.9-0.3,2.3-0.5,3.1c-0.8,3.2-9.2,31.7-9.2,37.2c0,1.7,2.3,3.6,3.5,3.6c5.2,0,13-11.6,14.7-15.6
	c4-9.5,10.5-27.4,12.1-32.8c0.2-0.6,0.4-1,0.7-1.4l0,0l0.2-0.2c0,0,0.1-0.1,0.1-0.1l96.9-96.9c3.4-3.4,8-5.3,12.9-5.3c0,0,0,0,0,0
	c4.9,0,9.4,1.9,12.9,5.3l21.8,21.8c1.2,1.2,3.3,1.2,4.5,0L348.2,41v0l8.4-8.4c7.1-7.1,18.6-7.1,25.7,0L516.3,166.6z M128.7,238
	c-8.3,3.1-14.8,8.8-14.8,13.3c0,1.6,1.7,3.5,3.4,3.5c2,0,6-1.7,7.3-4.4C125.4,248.2,127,243.4,128.7,238z"/>
</svg>
